<?xml version="1.0" standalone="no"?>
<!DOCTYPE svg PUBLIC "-//W3C//DTD SVG 20010904//EN"
 "http://www.w3.org/TR/2001/REC-SVG-20010904/DTD/svg10.dtd">
<svg version="1.0" xmlns="http://www.w3.org/2000/svg"
 width="275.000000pt" height="275.000000pt" viewBox="0 0 275.000000 275.000000"
 preserveAspectRatio="xMidYMid meet">
<metadata>
Created by potrace 1.14, written by Peter Selinger 2001-2017
</metadata>
<g transform="translate(0.000000,275.000000) scale(0.100000,-0.100000)"
fill="#000000" stroke="none">
<path d="M10 1375 l0 -1370 724 0 c399 0 727 3 730 6 4 3 -3 28 -15 55 -11 27
-26 65 -33 84 -23 64 -87 234 -111 295 l-24 60 -383 0 -383 0 -3 864 c-1 586
1 867 8 871 6 4 31 6 55 5 25 0 45 3 45 8 0 4 -9 29 -19 55 -23 56 -44 111
-114 297 l-53 140 -212 0 -212 0 0 -1370z"/>
<path d="M870 2734 c0 -7 34 -102 76 -211 42 -109 82 -216 90 -238 l14 -40
328 -1 c180 0 345 -3 367 -7 159 -25 288 -126 373 -292 176 -342 139 -893 -81
-1215 -69 -101 -203 -199 -291 -214 -16 -3 -30 -7 -32 -9 -3 -2 30 -94 72
-203 42 -109 80 -214 86 -232 9 -33 11 -34 46 -27 49 9 182 73 254 122 110 75
228 201 316 338 19 30 108 208 115 230 3 11 19 58 35 105 31 89 65 234 79 335
10 79 10 413 0 490 -74 545 -371 935 -797 1045 -48 13 -50 13 -120 25 -25 5
-244 9 -487 9 -339 1 -443 -1 -443 -10z"/>
</g>
</svg>
